<svg width="185" height="53" viewBox="0 0 185 53" fill="none" xmlns="http://www.w3.org/2000/svg">
<path d="M22.4629 29.8945C21.5313 30.9297 20.1683 31.7636 18.374 32.3962C16.5798 33.0288 14.613 33.3451 12.4736 33.3451C9.18414 33.3451 6.55599 32.3387 4.58919 30.3258C2.6224 28.313 1.56999 25.5124 1.43197 21.9238L1.41471 19.75C1.41471 17.2771 1.85178 15.1205 2.72591 13.2803C3.60004 11.4285 4.84798 10.008 6.46973 9.01888C8.10297 8.01823 9.98926 7.5179 12.1286 7.5179C15.2571 7.5179 17.6839 8.23676 19.4092 9.67448C21.1459 11.1007 22.1581 13.2343 22.4456 16.0752H16.6143C16.4072 14.672 15.9587 13.6713 15.2686 13.0732C14.5785 12.4752 13.6008 12.1761 12.3356 12.1761C10.8174 12.1761 9.64421 12.8202 8.81608 14.1084C7.98796 15.3966 7.56814 17.2369 7.55664 19.6292V21.1475C7.55664 23.6548 7.98221 25.5411 8.83333 26.8063C9.69596 28.06 11.0474 28.6868 12.8877 28.6868C14.4634 28.6868 15.6366 28.336 16.4072 27.6344V23.7354H12.1976V19.5775H22.4629V29.8945ZM36.2305 33C36.0234 32.6204 35.8394 32.0626 35.6784 31.3265C34.6087 32.6722 33.1135 33.3451 31.1927 33.3451C29.4329 33.3451 27.9377 32.816 26.707 31.7578C25.4763 30.6882 24.861 29.3482 24.861 27.738C24.861 25.7136 25.6086 24.1839 27.1038 23.1488C28.5991 22.1136 30.7729 21.596 33.6253 21.596H35.4196V20.6126C35.4196 18.8989 34.6777 18.042 33.194 18.042C31.8138 18.042 31.1237 18.7206 31.1237 20.0778H25.3096C25.3096 18.272 26.0744 16.8056 27.6042 15.6784C29.1454 14.5512 31.1064 13.9876 33.4873 13.9876C35.8682 13.9876 37.7487 14.5685 39.1289 15.7301C40.5091 16.8918 41.2165 18.4848 41.251 20.5091V28.7731C41.274 30.4869 41.5385 31.7981 42.0446 32.7067V33H36.2305ZM32.5902 29.2044C33.3148 29.2044 33.9129 29.0492 34.3844 28.7386C34.8675 28.4281 35.2126 28.0773 35.4196 27.6862V24.7015H33.7288C31.7045 24.7015 30.6924 25.6101 30.6924 27.4274C30.6924 27.9565 30.8707 28.3878 31.2272 28.7214C31.5838 29.0434 32.0381 29.2044 32.5902 29.2044ZM54.2594 27.7552C54.2594 27.2606 54.0007 26.8638 53.4831 26.5648C52.9655 26.2657 51.9821 25.9552 50.5329 25.6331C49.0837 25.3111 47.8875 24.8913 46.9443 24.3737C46.0012 23.8446 45.2823 23.2063 44.7878 22.4587C44.2932 21.711 44.0459 20.8542 44.0459 19.888C44.0459 18.1743 44.7533 16.7653 46.168 15.6611C47.5827 14.5455 49.4345 13.9876 51.7233 13.9876C54.1847 13.9876 56.163 14.5455 57.6582 15.6611C59.1534 16.7768 59.901 18.2433 59.901 20.0605H54.0697C54.0697 18.5653 53.2818 17.8177 51.7061 17.8177C51.0965 17.8177 50.5846 17.9902 50.1706 18.3353C49.7565 18.6688 49.5495 19.0886 49.5495 19.5947C49.5495 20.1123 49.8025 20.5321 50.3086 20.8542C50.8147 21.1762 51.6198 21.4408 52.724 21.6478C53.8396 21.8548 54.8173 22.1021 55.6569 22.3896C58.4633 23.3558 59.8665 25.0868 59.8665 27.5827C59.8665 29.2849 59.1074 30.6709 57.5892 31.7406C56.0825 32.8102 54.1272 33.3451 51.7233 33.3451C50.1246 33.3451 48.6984 33.0575 47.4447 32.4824C46.191 31.9073 45.2133 31.1252 44.5117 30.1361C43.8101 29.1469 43.4593 28.106 43.4593 27.0133H48.8939C48.9169 27.876 49.2044 28.5086 49.7565 28.9111C50.3086 29.3022 51.016 29.4977 51.8786 29.4977C52.6722 29.4977 53.2645 29.3367 53.6556 29.0146C54.0582 28.6926 54.2594 28.2728 54.2594 27.7552ZM84.624 26.3232C84.624 25.4376 84.3077 24.7475 83.6751 24.2529C83.054 23.7584 81.9556 23.2465 80.3799 22.7174C78.8042 22.1884 77.516 21.6765 76.5153 21.182C73.2603 19.5832 71.6328 17.3864 71.6328 14.5915C71.6328 13.1998 72.0354 11.9748 72.8405 10.9167C73.6571 9.847 74.8073 9.01888 76.291 8.43229C77.7747 7.8342 79.4425 7.53515 81.2943 7.53515C83.1001 7.53515 84.716 7.8572 86.1423 8.5013C87.58 9.1454 88.6956 10.0655 89.4893 11.2617C90.2829 12.4464 90.6797 13.8036 90.6797 15.3333H84.6413C84.6413 14.3097 84.325 13.5161 83.6924 12.9525C83.0713 12.3889 82.2259 12.1071 81.1563 12.1071C80.0751 12.1071 79.2182 12.3486 78.5856 12.8317C77.9645 13.3033 77.654 13.9071 77.654 14.6432C77.654 15.2873 77.999 15.8739 78.6891 16.403C79.3792 16.9206 80.5927 17.4612 82.3294 18.0247C84.0662 18.5768 85.4924 19.1749 86.6081 19.819C89.3225 21.3832 90.6797 23.5398 90.6797 26.2887C90.6797 28.4856 89.8516 30.2108 88.1953 31.4645C86.5391 32.7182 84.2675 33.3451 81.3805 33.3451C79.3447 33.3451 77.4987 32.9827 75.8425 32.2581C74.1977 31.522 72.9555 30.5214 72.1159 29.2562C71.2878 27.9795 70.8737 26.513 70.8737 24.8568H76.9466C76.9466 26.2025 77.2917 27.1974 77.9818 27.8415C78.6834 28.4741 79.8163 28.7904 81.3805 28.7904C82.3812 28.7904 83.1691 28.5776 83.7441 28.152C84.3307 27.715 84.624 27.1054 84.624 26.3232ZM100.289 9.69173V14.3327H103.36V18.3698H100.289V26.9098C100.289 27.6114 100.416 28.1003 100.669 28.3763C100.922 28.6523 101.422 28.7904 102.17 28.7904C102.745 28.7904 103.228 28.7559 103.619 28.6868V32.8447C102.572 33.1783 101.48 33.3451 100.341 33.3451C98.3398 33.3451 96.8619 32.8735 95.9072 31.9303C94.9526 30.9872 94.4753 29.5552 94.4753 27.6344V18.3698H92.0944V14.3327H94.4753V9.69173H100.289ZM116.179 33C115.972 32.6204 115.788 32.0626 115.627 31.3265C114.557 32.6722 113.062 33.3451 111.141 33.3451C109.382 33.3451 107.886 32.816 106.656 31.7578C105.425 30.6882 104.81 29.3482 104.81 27.738C104.81 25.7136 105.557 24.1839 107.052 23.1488C108.548 22.1136 110.721 21.596 113.574 21.596H115.368V20.6126C115.368 18.8989 114.626 18.042 113.143 18.042C111.762 18.042 111.072 18.7206 111.072 20.0778H105.258C105.258 18.272 106.023 16.8056 107.553 15.6784C109.094 14.5512 111.055 13.9876 113.436 13.9876C115.817 13.9876 117.697 14.5685 119.077 15.7301C120.458 16.8918 121.165 18.4848 121.2 20.5091V28.7731C121.223 30.4869 121.487 31.7981 121.993 32.7067V33H116.179ZM112.539 29.2044C113.263 29.2044 113.861 29.0492 114.333 28.7386C114.816 28.4281 115.161 28.0773 115.368 27.6862V24.7015H113.677C111.653 24.7015 110.641 25.6101 110.641 27.4274C110.641 27.9565 110.819 28.3878 111.176 28.7214C111.532 29.0434 111.987 29.2044 112.539 29.2044ZM131.206 9.69173V14.3327H134.277V18.3698H131.206V26.9098C131.206 27.6114 131.333 28.1003 131.586 28.3763C131.839 28.6523 132.339 28.7904 133.087 28.7904C133.662 28.7904 134.145 28.7559 134.536 28.6868V32.8447C133.489 33.1783 132.396 33.3451 131.258 33.3451C129.257 33.3451 127.779 32.8735 126.824 31.9303C125.869 30.9872 125.392 29.5552 125.392 27.6344V18.3698H123.011V14.3327H125.392V9.69173H131.206ZM142.714 33H136.882V14.3327H142.714V33ZM136.537 9.5192C136.537 8.69108 136.836 8.01248 137.434 7.4834C138.032 6.95432 138.809 6.68978 139.763 6.68978C140.718 6.68978 141.494 6.95432 142.092 7.4834C142.691 8.01248 142.99 8.69108 142.99 9.5192C142.99 10.3473 142.691 11.0259 142.092 11.555C141.494 12.0841 140.718 12.3486 139.763 12.3486C138.809 12.3486 138.032 12.0841 137.434 11.555C136.836 11.0259 136.537 10.3473 136.537 9.5192ZM145.577 23.4938C145.577 21.6305 145.94 19.9743 146.664 18.5251C147.389 17.0643 148.43 15.9429 149.787 15.1608C151.144 14.3787 152.737 13.9876 154.566 13.9876C157.361 13.9876 159.564 14.856 161.174 16.5928C162.784 18.318 163.589 20.6701 163.589 23.6491V23.8561C163.589 26.7661 162.778 29.0779 161.157 30.7917C159.546 32.4939 157.361 33.3451 154.601 33.3451C151.944 33.3451 149.81 32.5514 148.2 30.9642C146.59 29.3655 145.721 27.2031 145.595 24.4772L145.577 23.4938ZM151.392 23.8561C151.392 25.5814 151.662 26.8466 152.202 27.6517C152.743 28.4568 153.542 28.8594 154.601 28.8594C156.671 28.8594 157.729 27.2664 157.775 24.0804V23.4938C157.775 20.1468 156.705 18.4733 154.566 18.4733C152.622 18.4733 151.57 19.9168 151.409 22.8037L151.392 23.8561ZM171.491 14.3327L171.681 16.5238C172.969 14.833 174.746 13.9876 177.012 13.9876C178.956 13.9876 180.405 14.5685 181.359 15.7301C182.326 16.8918 182.826 18.6401 182.86 20.9749V33H177.029V21.2165C177.029 20.2733 176.839 19.5832 176.46 19.1462C176.08 18.6976 175.39 18.4733 174.389 18.4733C173.251 18.4733 172.405 18.9219 171.853 19.819V33H166.039V14.3327H171.491Z" fill="#051D53"/>
<path d="M128.245 47.7572C128.245 48.3725 128.141 48.9102 127.934 49.3703C127.727 49.8275 127.434 50.1769 127.055 50.4184C126.675 50.6599 126.232 50.7807 125.726 50.7807C125.231 50.7807 124.793 50.6599 124.411 50.4184C124.028 50.174 123.731 49.8275 123.518 49.3789C123.308 48.9275 123.2 48.4056 123.194 47.8133V47.3604C123.194 46.7565 123.299 46.2231 123.509 45.7602C123.719 45.2973 124.015 44.9436 124.398 44.6992C124.783 44.4519 125.223 44.3282 125.717 44.3282C126.221 44.3282 126.663 44.4504 127.046 44.6948C127.431 44.9364 127.727 45.2886 127.934 45.7516C128.141 46.2116 128.245 46.7479 128.245 47.3604V47.7572ZM127.421 47.3518C127.421 46.607 127.272 46.0362 126.973 45.6394C126.674 45.2397 126.255 45.0399 125.717 45.0399C125.194 45.0399 124.781 45.2397 124.48 45.6394C124.181 46.0362 124.027 46.5883 124.018 47.2957V47.7572C124.018 48.4789 124.169 49.0468 124.471 49.4609C124.776 49.8721 125.194 50.0777 125.726 50.0777C126.261 50.0777 126.675 49.8836 126.968 49.4954C127.262 49.1043 127.413 48.5451 127.421 47.8176V47.3518ZM132.304 46.0276L132.325 46.5452C132.667 46.1426 133.129 45.9413 133.71 45.9413C134.362 45.9413 134.807 46.1915 135.042 46.6918C135.198 46.4676 135.399 46.2864 135.646 46.1484C135.896 46.0104 136.191 45.9413 136.531 45.9413C137.554 45.9413 138.075 46.4834 138.092 47.5674V50.6944H137.294V47.6149C137.294 47.2813 137.218 47.0326 137.065 46.8687C136.913 46.7019 136.657 46.6185 136.298 46.6185C136.001 46.6185 135.756 46.7077 135.56 46.8859C135.365 47.0613 135.251 47.2986 135.219 47.5976V50.6944H134.417V47.6364C134.417 46.9578 134.085 46.6185 133.421 46.6185C132.897 46.6185 132.539 46.8414 132.347 47.2871V50.6944H131.549V46.0276H132.304ZM141.236 50.7807C140.604 50.7807 140.089 50.5737 139.692 50.1596C139.295 49.7427 139.097 49.1863 139.097 48.4904V48.3438C139.097 47.8808 139.185 47.4682 139.36 47.1059C139.538 46.7407 139.786 46.4561 140.102 46.2519C140.421 46.0449 140.766 45.9413 141.137 45.9413C141.744 45.9413 142.215 46.1412 142.552 46.5409C142.888 46.9406 143.056 47.5128 143.056 48.2575V48.5896H139.895C139.906 49.0497 140.04 49.4221 140.296 49.7067C140.555 49.9885 140.882 50.1294 141.279 50.1294C141.561 50.1294 141.8 50.0719 141.995 49.9569C142.191 49.8419 142.362 49.6895 142.509 49.4997L142.996 49.8793C142.605 50.4802 142.018 50.7807 141.236 50.7807ZM141.137 46.5969C140.815 46.5969 140.545 46.7148 140.326 46.9506C140.108 47.1835 139.972 47.5113 139.921 47.934H142.258V47.8736C142.235 47.4682 142.126 47.1548 141.931 46.9334C141.735 46.7091 141.471 46.5969 141.137 46.5969ZM144.851 50.6944H144.053V44.0694H144.851V50.6944ZM146.93 46.5926C147.283 46.1584 147.743 45.9413 148.31 45.9413C149.296 45.9413 149.793 46.4977 149.802 47.6105V50.6944H149.004V47.6062C149.001 47.2698 148.924 47.0211 148.771 46.8601C148.622 46.699 148.387 46.6185 148.068 46.6185C147.809 46.6185 147.582 46.6875 147.387 46.8255C147.191 46.9636 147.039 47.1447 146.93 47.369V50.6944H146.132V44.0694H146.93V46.5926ZM150.785 48.3179C150.785 47.8607 150.875 47.4495 151.053 47.0843C151.234 46.7192 151.484 46.4374 151.803 46.239C152.125 46.0406 152.492 45.9413 152.903 45.9413C153.539 45.9413 154.052 46.1613 154.443 46.6013C154.837 47.0412 155.034 47.6264 155.034 48.3567V48.4128C155.034 48.8671 154.946 49.2754 154.771 49.6377C154.598 49.9971 154.35 50.2775 154.025 50.4788C153.703 50.6801 153.332 50.7807 152.912 50.7807C152.279 50.7807 151.766 50.5607 151.372 50.1208C150.981 49.6809 150.785 49.0986 150.785 48.374V48.3179ZM151.588 48.4128C151.588 48.9304 151.707 49.3459 151.946 49.6593C152.187 49.9727 152.509 50.1294 152.912 50.1294C153.317 50.1294 153.639 49.9713 153.878 49.655C154.117 49.3358 154.236 48.8901 154.236 48.3179C154.236 47.8061 154.114 47.392 153.869 47.0757C153.628 46.7565 153.306 46.5969 152.903 46.5969C152.509 46.5969 152.192 46.7537 151.95 47.0671C151.708 47.3805 151.588 47.8291 151.588 48.4128ZM158.29 46.7436C158.17 46.7235 158.039 46.7134 157.898 46.7134C157.375 46.7134 157.019 46.9363 156.833 47.3819V50.6944H156.035V46.0276H156.811L156.824 46.5668C157.086 46.1498 157.456 45.9413 157.937 45.9413C158.092 45.9413 158.21 45.9615 158.29 46.0017V46.7436ZM165.161 48.4128C165.161 49.123 164.999 49.6952 164.674 50.1294C164.349 50.5636 163.909 50.7807 163.354 50.7807C162.788 50.7807 162.342 50.601 162.017 50.2416V52.4887H161.219V46.0276H161.948L161.987 46.5452C162.312 46.1426 162.763 45.9413 163.341 45.9413C163.902 45.9413 164.345 46.1527 164.67 46.5754C164.997 46.9981 165.161 47.5861 165.161 48.3395V48.4128ZM164.363 48.3222C164.363 47.796 164.251 47.3805 164.027 47.0757C163.803 46.7709 163.495 46.6185 163.104 46.6185C162.621 46.6185 162.258 46.8327 162.017 47.2612V49.4911C162.256 49.9166 162.621 50.1294 163.112 50.1294C163.495 50.1294 163.798 49.9785 164.023 49.6765C164.25 49.3717 164.363 48.9203 164.363 48.3222ZM168.435 46.7436C168.314 46.7235 168.183 46.7134 168.042 46.7134C167.519 46.7134 167.164 46.9363 166.977 47.3819V50.6944H166.179V46.0276H166.955L166.968 46.5668C167.23 46.1498 167.601 45.9413 168.081 45.9413C168.236 45.9413 168.354 45.9615 168.435 46.0017V46.7436ZM171.023 50.7807C170.39 50.7807 169.875 50.5737 169.479 50.1596C169.082 49.7427 168.883 49.1863 168.883 48.4904V48.3438C168.883 47.8808 168.971 47.4682 169.147 47.1059C169.325 46.7407 169.572 46.4561 169.888 46.2519C170.208 46.0449 170.553 45.9413 170.924 45.9413C171.53 45.9413 172.002 46.1412 172.338 46.5409C172.675 46.9406 172.843 47.5128 172.843 48.2575V48.5896H169.681C169.693 49.0497 169.827 49.4221 170.083 49.7067C170.341 49.9885 170.669 50.1294 171.066 50.1294C171.348 50.1294 171.586 50.0719 171.782 49.9569C171.977 49.8419 172.149 49.6895 172.295 49.4997L172.783 49.8793C172.391 50.4802 171.805 50.7807 171.023 50.7807ZM170.924 46.5969C170.602 46.5969 170.331 46.7148 170.113 46.9506C169.894 47.1835 169.759 47.5113 169.707 47.934H172.045V47.8736C172.022 47.4682 171.913 47.1548 171.717 46.9334C171.522 46.7091 171.257 46.5969 170.924 46.5969ZM175.642 50.1294C175.927 50.1294 176.176 50.0432 176.388 49.8706C176.601 49.6981 176.719 49.4824 176.742 49.2237H177.497C177.482 49.4911 177.39 49.7455 177.221 49.9871C177.051 50.2286 176.824 50.4213 176.539 50.565C176.258 50.7088 175.958 50.7807 175.642 50.7807C175.007 50.7807 174.501 50.5694 174.124 50.1467C173.75 49.7211 173.563 49.1403 173.563 48.4042V48.2705C173.563 47.8161 173.647 47.4121 173.813 47.0585C173.98 46.7048 174.219 46.4302 174.529 46.2346C174.843 46.0391 175.212 45.9413 175.638 45.9413C176.161 45.9413 176.595 46.0981 176.94 46.4115C177.288 46.7249 177.474 47.1318 177.497 47.6321H176.742C176.719 47.3302 176.604 47.0829 176.397 46.8902C176.193 46.6947 175.94 46.5969 175.638 46.5969C175.232 46.5969 174.918 46.7436 174.693 47.0369C174.472 47.3273 174.361 47.7486 174.361 48.3006V48.4516C174.361 48.9893 174.472 49.4034 174.693 49.6938C174.915 49.9842 175.231 50.1294 175.642 50.1294ZM175.772 50.7333L175.72 50.9575C176.16 51.0352 176.38 51.2839 176.38 51.7037C176.38 51.9826 176.265 52.2026 176.035 52.3636C175.805 52.5275 175.484 52.6095 175.073 52.6095L175.043 52.148C175.27 52.148 175.445 52.1106 175.569 52.0358C175.695 51.9611 175.759 51.8561 175.759 51.721C175.759 51.5945 175.713 51.501 175.621 51.4406C175.529 51.3802 175.342 51.3371 175.06 51.3112L175.198 50.7333H175.772ZM178.183 48.3179C178.183 47.8607 178.272 47.4495 178.45 47.0843C178.631 46.7192 178.881 46.4374 179.201 46.239C179.523 46.0406 179.889 45.9413 180.3 45.9413C180.936 45.9413 181.449 46.1613 181.84 46.6013C182.234 47.0412 182.431 47.6264 182.431 48.3567V48.4128C182.431 48.8671 182.343 49.2754 182.168 49.6377C181.995 49.9971 181.747 50.2775 181.422 50.4788C181.1 50.6801 180.729 50.7807 180.309 50.7807C179.676 50.7807 179.163 50.5607 178.769 50.1208C178.378 49.6809 178.183 49.0986 178.183 48.374V48.3179ZM178.985 48.4128C178.985 48.9304 179.104 49.3459 179.343 49.6593C179.584 49.9727 179.906 50.1294 180.309 50.1294C180.714 50.1294 181.036 49.9713 181.275 49.655C181.514 49.3358 181.633 48.8901 181.633 48.3179C181.633 47.8061 181.511 47.392 181.267 47.0757C181.025 46.7565 180.703 46.5969 180.3 46.5969C179.906 46.5969 179.589 46.7537 179.347 47.0671C179.106 47.3805 178.985 47.8291 178.985 48.4128Z" fill="#051D53"/>
<path d="M2.69897 38.7685H182.801" stroke="#D6722E" stroke-width="1.47222" stroke-linecap="round"/>
</svg>
